<svg version="1.2" baseProfile="tiny-ps" xmlns="http://www.w3.org/2000/svg" viewBox="0 0 202 229" width="202" height="229">
	<title>New Project-svg</title>
	<style>
		tspan { white-space:pre }
		.shp0 { fill: #e9b24f } 
		.shp1 { fill: #4d6171 } 
	</style>
	<path id="Shape 1" class="shp0" d="M43 147.6C24.42 147.6 9.4 132.58 9.4 114C9.4 95.42 24.42 80.4 43 80.4C61.58 80.4 76.6 95.42 76.6 114C76.6 132.58 61.58 147.6 43 147.6Z" />
	<g id="Layer">
		<path id="Layer" fill-rule="evenodd" class="shp1" d="M198.99 120.18C197.67 121.38 188.43 127.38 178.23 133.62C153.03 149.1 149.67 148.98 149.67 132.66L149.67 123.3L85.47 123.3L82.71 130.26C81.15 133.98 79.71 137.7 79.35 138.3C79.11 139.02 88.83 149.46 101.07 161.7L123.27 183.9L128.91 178.26C136.11 171.18 139.83 170.1 143.91 173.94C146.43 176.22 147.87 180.42 151.95 198.06C157.47 221.7 157.71 224.34 154.95 226.98C152.19 229.74 148.95 229.38 124.47 223.62C109.11 219.9 101.91 217.62 100.83 216.18C97.95 212.22 99.03 208.62 105.27 202.02L111.15 195.78L66.27 151.14L61.47 153.42C43.95 161.46 24.39 157.74 11.31 143.82C2.79 134.7 0.51 128.58 0.39 114.9C0.27 104.94 0.63 102.66 3.51 96.66C7.59 87.9 15.87 79.62 24.63 75.54C30.51 72.78 33.03 72.3 42.87 72.3C52.71 72.3 55.11 72.78 60.51 75.42L66.75 78.42L111.87 33.3L105.51 26.94C102.03 23.34 99.27 19.5 99.27 18.06C99.27 12.54 102.63 10.98 126.51 5.22C151.71 -0.78 154.95 -0.78 156.39 5.22C157.35 8.82 147.87 52.5 145.59 55.5C144.87 56.46 142.83 57.54 141.03 57.9C138.27 58.62 136.83 57.78 131.19 52.5L124.47 46.14L111.63 58.26C104.43 64.86 94.23 74.82 88.71 80.34L78.75 90.42L81.75 97.02C83.43 100.62 84.87 104.22 84.87 105.06C84.87 106.14 92.19 106.5 117.27 106.5L149.67 106.5L149.67 96.9C149.67 88.14 149.91 87.18 152.67 85.38C154.47 84.18 156.51 83.82 158.31 84.42C161.67 85.5 194.91 106.02 198.63 109.26C201.87 112.26 202.11 117.42 198.99 120.18ZM65.43 102.9C60.15 92.94 47.19 86.94 37.11 89.7C18.27 94.86 10.71 115.86 22.35 130.5C33.51 144.42 54.39 143.7 64.11 129.06C68.91 121.98 69.39 110.46 65.43 102.9Z" />
	</g>
</svg>